<svg xmlns="http://www.w3.org/2000/svg" width="200" height="200" viewBox="0 0 200 200">
  <defs>
    <linearGradient id="barGrad" x1="0%" y1="0%" x2="100%" y2="0%">
      <stop offset="0%" stop-color="#06b6d4" />
      <stop offset="100%" stop-color="#8b5cf6" />
    </linearGradient>
    <linearGradient id="stemGrad" x1="0%" y1="0%" x2="100%" y2="100%">
      <stop offset="0%" stop-color="#8b5cf6" />
      <stop offset="100%" stop-color="#ec4899" />
    </linearGradient>
    <linearGradient id="bgGrad" x1="0%" y1="0%" x2="100%" y2="100%">
      <stop offset="0%" stop-color="#08081a" />
      <stop offset="100%" stop-color="#150a35" />
    </linearGradient>
  </defs>
  <rect width="200" height="200" rx="40" fill="url(#bgGrad)" />
  <rect x="55" y="68" width="90" height="4" rx="2" fill="url(#barGrad)" opacity="0.25" />
  <rect x="45" y="58" width="110" height="6" rx="3" fill="url(#barGrad)" opacity="0.5" />
  <rect x="35" y="45" width="130" height="8" rx="4" fill="url(#barGrad)" />
  <rect x="82" y="85" width="16" height="65" rx="3" fill="url(#stemGrad)" opacity="0.2" />
  <rect x="102" y="85" width="16" height="65" rx="3" fill="url(#stemGrad)" opacity="0.2" />
  <rect x="88" y="78" width="24" height="80" rx="4" fill="url(#stemGrad)" />
  <ellipse cx="100" cy="162" rx="40" ry="4" fill="#8b5cf6" opacity="0.3" />
  <circle cx="40" cy="49" r="3" fill="#06b6d4" />
  <circle cx="160" cy="49" r="3" fill="#8b5cf6" />
  <circle cx="100" cy="162" r="4" fill="#ec4899" />
</svg>
